<?xml version="1.0" encoding="utf-8"?>
<!-- Generator: Adobe Illustrator 19.1.0, SVG Export Plug-In . SVG Version: 6.00 Build 0)  -->
<svg version="1.1" id="レイヤー_1" xmlns="http://www.w3.org/2000/svg" xmlns:xlink="http://www.w3.org/1999/xlink" x="0px"
	 y="0px" viewBox="0 0 50 50" style="enable-background:new 0 0 50 50;" xml:space="preserve">
<style type="text/css">
	.st0{fill:#FFFFFF;}
</style>
<g>
	<path class="st0" d="M11.3,5.5h6.8v32.8h20.5v6.2H11.3V5.5z"/>
</g>
<g>
	<path class="st0" d="M629.1,299.1c-3,0-5.9-0.5-8.6-1.5c-2.8-1-5.3-2.6-7.6-4.7l4.1-4.9c1.9,1.6,3.8,2.9,5.7,3.8
		c1.9,0.9,4.1,1.3,6.6,1.3c2.1,0,3.8-0.4,5-1.3c1.2-0.9,1.9-2.1,1.9-3.6V288c0-0.7-0.1-1.3-0.4-1.9c-0.2-0.5-0.7-1-1.3-1.5
		s-1.5-0.9-2.7-1.3c-1.1-0.4-2.6-0.8-4.4-1.2c-2.1-0.5-3.9-1-5.6-1.6c-1.6-0.6-3-1.4-4.1-2.2c-1.1-0.9-1.9-1.9-2.5-3.2
		c-0.6-1.3-0.9-2.8-0.9-4.6v-0.1c0-1.7,0.3-3.2,1-4.6c0.7-1.4,1.6-2.6,2.7-3.6c1.2-1,2.6-1.8,4.2-2.3c1.6-0.6,3.4-0.8,5.3-0.8
		c2.9,0,5.4,0.4,7.7,1.3s4.4,2.1,6.4,3.7l-3.7,5.2c-1.8-1.3-3.5-2.3-5.3-3c-1.7-0.7-3.5-1-5.3-1c-2,0-3.6,0.4-4.7,1.3
		c-1.1,0.9-1.7,2-1.7,3.3v0.1c0,0.7,0.1,1.4,0.4,2c0.3,0.6,0.7,1.1,1.4,1.6c0.7,0.5,1.6,0.9,2.9,1.3c1.2,0.4,2.7,0.8,4.6,1.3
		c2,0.5,3.9,1.1,5.4,1.7c1.6,0.6,2.9,1.4,3.9,2.3c1,0.9,1.8,2,2.4,3.2c0.5,1.2,0.8,2.6,0.8,4.2v0.1c0,1.8-0.3,3.5-1,4.9
		c-0.7,1.5-1.6,2.7-2.8,3.7c-1.2,1-2.7,1.8-4.4,2.3C633.1,298.9,631.2,299.1,629.1,299.1z"/>
</g>
</svg>
