<?xml version="1.0" encoding="utf-8"?>
<!-- Generator: Adobe Illustrator 19.1.0, SVG Export Plug-In . SVG Version: 6.00 Build 0)  -->
<svg version="1.1" id="レイヤー_1" xmlns="http://www.w3.org/2000/svg" xmlns:xlink="http://www.w3.org/1999/xlink" x="0px"
	 y="0px" viewBox="0 0 50 50" style="enable-background:new 0 0 50 50;" xml:space="preserve">
<style type="text/css">
	.st0{fill:#FFFFFF;}
</style>
<g>
	<path class="st0" d="M27,45.2c-3,0-5.8-0.5-8.3-1.5c-2.5-1-4.6-2.4-6.4-4.2c-1.8-1.8-3.1-3.9-4.1-6.4c-1-2.4-1.4-5.1-1.4-7.9V25
		c0-2.7,0.5-5.3,1.5-7.7c1-2.5,2.4-4.6,4.2-6.4c1.8-1.8,3.9-3.3,6.4-4.4c2.5-1.1,5.2-1.6,8.1-1.6c1.7,0,3.3,0.1,4.7,0.4
		s2.7,0.6,3.9,1c1.2,0.4,2.3,1,3.4,1.6c1.1,0.7,2.1,1.4,3.1,2.3l-4.3,5.2c-0.7-0.6-1.5-1.2-2.3-1.7c-0.8-0.5-1.6-1-2.5-1.3
		C32,11.9,31,11.6,30,11.4c-1-0.2-2.1-0.3-3.4-0.3c-1.8,0-3.4,0.4-5,1.1c-1.5,0.7-2.9,1.7-4,3c-1.1,1.2-2,2.7-2.7,4.4
		c-0.7,1.7-1,3.4-1,5.3V25c0,2,0.3,3.9,0.9,5.6c0.6,1.7,1.5,3.2,2.7,4.4c1.2,1.2,2.6,2.2,4.2,2.9c1.6,0.7,3.4,1.1,5.4,1.1
		c1.9,0,3.6-0.3,5.2-0.8c1.6-0.5,3-1.3,4.2-2.2v-7.3h-10v-6h16.6v16.4c-1,0.8-2,1.6-3.2,2.3c-1.2,0.7-2.4,1.4-3.8,2s-2.8,1-4.4,1.3
		C30.3,45,28.7,45.2,27,45.2z"/>
</g>
</svg>
