<?xml version="1.0" encoding="utf-8"?>
<!-- Generator: Adobe Illustrator 19.1.0, SVG Export Plug-In . SVG Version: 6.00 Build 0)  -->
<svg version="1.1" id="レイヤー_1" xmlns="http://www.w3.org/2000/svg" xmlns:xlink="http://www.w3.org/1999/xlink" x="0px"
	 y="0px" viewBox="0 0 32 32" style="enable-background:new 0 0 32 32;" xml:space="preserve">
<style type="text/css">
	.st0{fill:#BDBDBD;}
</style>
<g id="新規シンボル_2">
	<path class="st0" d="M28,9.9c0,0.3,0,0.5,0,0.8c0,8.2-6.2,17.6-17.6,17.6c-3.5,0-6.7-1-9.5-2.8c0.5,0.1,1,0.1,1.5,0.1
		c2.9,0,5.6-1,7.7-2.6c-2.7,0-5-1.8-5.8-4.3c0.4,0.1,0.8,0.1,1.2,0.1c0.6,0,1.1-0.1,1.6-0.2c-2.8-0.6-5-3.1-5-6.1c0,0,0-0.1,0-0.1
		C3,12.8,3.9,13.1,5,13.1C3.3,12,2.2,10.1,2.2,8c0-1.1,0.3-2.2,0.8-3.1c3,3.7,7.6,6.2,12.7,6.5c-0.1-0.5-0.2-0.9-0.2-1.4
		c0-3.4,2.8-6.2,6.2-6.2c1.8,0,3.4,0.8,4.5,1.9c1.4-0.3,2.7-0.8,3.9-1.5c-0.5,1.4-1.4,2.7-2.7,3.4c1.2-0.1,2.4-0.5,3.5-1
		C30.2,7.9,29.2,9,28,9.9z"/>
</g>
</svg>
