<?xml version="1.0" encoding="utf-8"?>
<!-- Generator: Adobe Illustrator 19.1.0, SVG Export Plug-In . SVG Version: 6.00 Build 0)  -->
<svg version="1.1" id="レイヤー_1" xmlns="http://www.w3.org/2000/svg" xmlns:xlink="http://www.w3.org/1999/xlink" x="0px"
	 y="0px" viewBox="0 0 126 30" style="enable-background:new 0 0 126 30;" xml:space="preserve">
<style type="text/css">
	.st0{fill:#FFFFFF;}
</style>
<g>
	<rect x="47.9" y="21.5" class="st0" width="1.2" height="7.8"/>
	<polygon class="st0" points="53.1,29.3 53.1,21 61.1,27.2 61.1,21.5 62.3,21.5 62.3,29.7 54.3,23.5 54.3,29.3 	"/>
	<path class="st0" d="M66.3,29.3v-7.8h4.3c2.4,0,5.4,1.1,5.4,3.9c0,2.8-3.1,3.9-5.4,3.9H66.3 M67.4,28.2h3c1.8,0,4.3-0.6,4.3-2.9
		c0-2.3-2.5-2.9-4.3-2.9h-3V28.2z"/>
	<polygon class="st0" points="79.5,21.5 87.2,21.5 87.2,22.5 80.7,22.5 80.7,24.6 86.2,24.6 86.2,25.7 80.7,25.7 80.7,28.2 
		87.2,28.2 87.2,29.3 79.5,29.3 	"/>
	<polygon class="st0" points="89.8,22.5 89.8,21.5 99,21.5 99,22.5 95,22.5 95,29.3 93.8,29.3 93.8,22.5 	"/>
	<path class="st0" d="M106.9,26.8h-4.6l-1.6,2.4h-1.4l5.3-8.2l5.3,8.2h-1.4L106.9,26.8z M102.9,25.8h3.3l-1.6-2.6L102.9,25.8z"/>
	<rect x="112.8" y="21.5" class="st0" width="1.2" height="7.8"/>
	<polygon class="st0" points="119.2,28.2 125.6,28.2 125.6,29.3 118,29.3 118,21.5 119.2,21.5 	"/>
	<rect x="0.4" y="0.3" class="st0" width="5.5" height="29.3"/>
	<polygon class="st0" points="41,15.1 32.6,0.5 11.6,0.5 11.6,5.8 29.6,5.8 34.9,15.1 29.6,24.3 11.6,24.3 11.6,29.6 32.6,29.6 	"/>
</g>
</svg>
