<?xml version="1.0" encoding="utf-8"?>
<!-- Generator: Adobe Illustrator 19.1.0, SVG Export Plug-In . SVG Version: 6.00 Build 0)  -->
<svg version="1.1" id="US_UK_Download_on_the" xmlns="http://www.w3.org/2000/svg" xmlns:xlink="http://www.w3.org/1999/xlink"
	 x="0px" y="0px" viewBox="-412 261 135 40" style="enable-background:new -412 261 135 40;" xml:space="preserve">
<style type="text/css">
	.st0{fill:#A6A6A6;}
	.st1{fill:#FFFFFF;}
	.st2{fill:none;}
	.st3{fill:url(#SVGID_1_);}
	.st4{fill:url(#SVGID_2_);}
	.st5{fill:url(#SVGID_3_);}
	.st6{fill:url(#SVGID_4_);}
</style>
<g>
	<path class="st0" d="M-281.8,301h-125.5c-2.6,0-4.7-2.1-4.7-4.7v-30.5c0-2.6,2.1-4.7,4.7-4.7h125.5c2.6,0,4.8,2.1,4.8,4.7v30.5
		C-277,298.9-279.2,301-281.8,301L-281.8,301z"/>
	<path d="M-278,296.3c0,2.1-1.7,3.8-3.8,3.8h-125.5c-2.1,0-3.8-1.7-3.8-3.8v-30.5c0-2.1,1.7-3.8,3.8-3.8h125.5
		c2.1,0,3.8,1.7,3.8,3.8L-278,296.3L-278,296.3z"/>
	<g>
		<g>
			<g>
				<path class="st1" d="M-323.3,289.4l-0.8,0.8c-0.2,0.1-0.4,0.2-0.6,0.3c-0.6,0.3-1.2,0.3-1.7,0.3c-0.6,0-1.4,0-2.3-0.7
					c-1.2-0.9-1.8-2.4-1.8-3.7c0-2.7,2.2-4,4-4c0.6,0,1.3,0.2,1.8,0.5c0.9,0.6,1.1,1.3,1.2,1.7l-4.1,1.7l-1.3,0.1
					c0.4,2.2,1.9,3.5,3.6,3.5C-324.6,289.9-323.9,289.6-323.3,289.4C-323.4,289.4-323.3,289.3-323.3,289.4z M-325.8,285
					c0.3-0.1,0.5-0.2,0.5-0.5c0-0.7-0.8-1.5-1.7-1.5c-0.7,0-2,0.5-2,2.4c0,0.3,0,0.6,0.1,0.9L-325.8,285z"/>
				<path class="st1" d="M-331.9,289.2c0,0.7,0.1,0.8,0.7,0.8c0.3,0,0.6,0.1,0.9,0.1l-0.6,0.4h-3.1c0.4-0.5,0.5-0.6,0.5-0.9v-0.4
					l0-10.4h-1.4l1.3-0.6h2.5c-0.5,0.3-0.7,0.5-0.8,1.1L-331.9,289.2z"/>
				<path class="st1" d="M-336.7,283.3c0.4,0.3,1.2,1,1.2,2.4c0,1.3-0.7,1.9-1.5,2.5c-0.2,0.2-0.5,0.5-0.5,0.9
					c0,0.4,0.3,0.6,0.5,0.8l0.6,0.5c0.8,0.6,1.5,1.2,1.5,2.4c0,1.6-1.6,3.3-4.6,3.3c-2.5,0-3.8-1.2-3.8-2.5c0-0.6,0.3-1.5,1.3-2.1
					c1.1-0.7,2.6-0.8,3.3-0.8c-0.2-0.3-0.5-0.6-0.5-1.2c0-0.3,0.1-0.5,0.2-0.7c-0.2,0-0.4,0-0.6,0c-1.9,0-2.9-1.4-2.9-2.7
					c0-0.8,0.4-1.7,1.1-2.3c1-0.8,2.2-1,3.1-1h3.6l-1.1,0.6L-336.7,283.3L-336.7,283.3z M-337.9,291c-0.1,0-0.2,0-0.4,0
					c-0.2,0-1.1,0-1.8,0.3c-0.4,0.1-1.5,0.6-1.5,1.8c0,1.2,1.2,2.1,3.1,2.1c1.7,0,2.6-0.8,2.6-1.9C-336,292.4-336.6,292-337.9,291z
					 M-337.4,287.7c0.4-0.4,0.4-1,0.4-1.3c0-1.3-0.7-3.2-2.2-3.2c-0.5,0-0.9,0.2-1.2,0.6c-0.3,0.4-0.4,0.8-0.4,1.3
					c0,1.2,0.7,3.1,2.2,3.1C-338.2,288.2-337.7,288-337.4,287.7z"/>
				<path class="st1" d="M-347.5,290.8c-2.8,0-4.3-2.2-4.3-4.1c0-2.3,1.9-4.2,4.5-4.2c2.6,0,4.2,2,4.2,4.1
					C-343.1,288.6-344.7,290.8-347.5,290.8z M-345.4,289.4c0.4-0.6,0.5-1.3,0.5-1.9c0-1.5-0.7-4.5-2.9-4.5c-0.6,0-1.2,0.2-1.6,0.6
					c-0.7,0.6-0.8,1.4-0.8,2.1c0,1.7,0.9,4.6,3,4.6C-346.5,290.2-345.8,289.9-345.4,289.4z"/>
				<path class="st1" d="M-356.8,290.8c-2.8,0-4.3-2.2-4.3-4.1c0-2.3,1.9-4.2,4.5-4.2c2.6,0,4.2,2,4.2,4.1
					C-352.4,288.6-354,290.8-356.8,290.8z M-354.7,289.4c0.4-0.6,0.5-1.3,0.5-1.9c0-1.5-0.7-4.5-2.9-4.5c-0.6,0-1.2,0.2-1.6,0.6
					c-0.7,0.6-0.8,1.4-0.8,2.1c0,1.7,0.9,4.6,3,4.6C-355.8,290.2-355.1,289.9-354.7,289.4z"/>
				<path class="st1" d="M-362.2,290.2l-2.3,0.5c-0.9,0.2-1.8,0.3-2.7,0.3c-4.5,0-6.2-3.3-6.2-5.9c0-3.2,2.4-6.1,6.6-6.1
					c0.9,0,1.7,0.1,2.5,0.3c1.2,0.3,1.8,0.8,2.2,1l-1.4,1.3l-0.6,0.1l0.4-0.7c-0.6-0.5-1.6-1.5-3.5-1.5c-2.6,0-4.5,2-4.5,4.8
					c0,3.1,2.2,6,5.8,6c1.1,0,1.6-0.2,2.1-0.4v-2.6l-2.5,0.1l1.3-0.7h3.5l-0.4,0.4c-0.1,0.1-0.1,0.1-0.2,0.3c0,0.1,0,0.6,0,0.8
					L-362.2,290.2L-362.2,290.2L-362.2,290.2z"/>
			</g>
			<g>
				<path class="st1" d="M-318.3,289.4v4.5h-0.9v-11.3h0.9v1.3c0.6-0.8,1.6-1.5,2.9-1.5c2.2,0,3.7,1.7,3.7,4.3
					c0,2.6-1.5,4.3-3.7,4.3C-316.6,291-317.6,290.4-318.3,289.4z M-312.7,286.7c0-2-1-3.5-2.9-3.5c-1.1,0-2.2,0.9-2.7,1.7v3.6
					c0.5,0.8,1.6,1.7,2.7,1.7C-313.8,290.2-312.7,288.7-312.7,286.7z"/>
				<path class="st1" d="M-310.6,290.8v-11.3h0.9v11.3H-310.6z"/>
				<path class="st1" d="M-299.8,293.2c0.2,0.1,0.5,0.1,0.7,0.1c0.5,0,0.9-0.2,1.3-1l0.6-1.5l-3.5-8.3h1l3,7.2l3-7.2h1l-4.2,10
					c-0.4,1-1.1,1.5-2.1,1.5c-0.3,0-0.7-0.1-0.9-0.1L-299.8,293.2z"/>
				<path class="st1" d="M-302.4,290.7c-0.1-0.3-0.1-0.5-0.1-0.7c0-0.2,0-0.4,0-0.6c-0.3,0.4-0.7,0.8-1.3,1.1
					c-0.5,0.3-1.1,0.4-1.8,0.4c-0.9,0-1.5-0.2-2-0.6c-0.5-0.4-0.7-1-0.7-1.7c0-0.7,0.3-1.3,1-1.8c0.7-0.5,1.6-0.7,2.7-0.7h2.1v-1
					c0-0.6-0.2-1-0.6-1.4c-0.4-0.3-1-0.5-1.7-0.5c-0.7,0-1.2,0.2-1.6,0.5c-0.4,0.3-0.6,0.7-0.6,1.1h-0.9l0,0c0-0.6,0.2-1.2,0.9-1.6
					c0.6-0.5,1.4-0.7,2.4-0.7c1,0,1.7,0.2,2.3,0.7c0.6,0.5,0.9,1.1,0.9,2v4c0,0.3,0,0.6,0.1,0.8c0,0.3,0.1,0.5,0.2,0.8L-302.4,290.7
					L-302.4,290.7z M-305.5,290.1c0.8,0,1.3-0.2,1.8-0.5c0.5-0.3,0.9-0.8,1.1-1.3v-1.6h-2.1c-0.8,0-1.4,0.2-2,0.5
					c-0.5,0.4-0.8,0.8-0.8,1.3c0,0.5,0.2,0.8,0.5,1.1C-306.5,290-306.1,290.1-305.5,290.1z"/>
			</g>
		</g>
		<g>
			<g>
				<path class="st1" d="M-373.5,270.1c0-1.7,1.3-2.9,2.9-2.9c1.1,0,1.8,0.5,2.2,1.1l-0.8,0.5c-0.3-0.4-0.8-0.7-1.4-0.7
					c-1.1,0-1.9,0.8-1.9,2c0,1.2,0.8,2,1.9,2c0.6,0,1.1-0.3,1.3-0.5v-0.9h-1.7v-0.9h2.6v2.1c-0.5,0.6-1.3,1-2.3,1
					C-372.2,273-373.5,271.9-373.5,270.1z"/>
				<path class="st1" d="M-367.1,272.9v-5.5h3.8v0.9h-2.8v1.4h2.8v0.9h-2.8v1.5h2.8v0.9L-367.1,272.9L-367.1,272.9z"/>
				<path class="st1" d="M-360.6,272.9v-4.7h-1.7v-0.9h4.3v0.9h-1.7v4.7H-360.6z"/>
				<path class="st1" d="M-354.6,272.9v-5.5h1v5.5H-354.6z"/>
				<path class="st1" d="M-350.9,272.9v-4.7h-1.7v-0.9h4.3v0.9h-1.7v4.7H-350.9z"/>
				<path class="st1" d="M-345.2,270.1c0-1.7,1.2-2.9,2.8-2.9c1.6,0,2.8,1.2,2.8,2.9c0,1.6-1.2,2.9-2.8,2.9
					C-344,273-345.2,271.8-345.2,270.1z M-340.5,270.1c0-1.1-0.7-2-1.8-2c-1.1,0-1.8,0.9-1.8,2c0,1.1,0.7,2,1.8,2
					C-341.2,272.1-340.5,271.3-340.5,270.1z"/>
				<path class="st1" d="M-334.5,272.9l-2.9-4v4h-1v-5.5h1l2.8,3.8v-3.8h1v5.5H-334.5z"/>
			</g>
		</g>
		<g>
			<polygon class="st2" points="-385.1,286.2 -382.2,283.4 -382.2,283.4 -385.1,286.2 -394.1,277.1 -394.1,277.1 -385.1,286.2 
				-394.1,295.3 -394.1,295.3 -385.1,286.2 -382.2,289.1 -382.2,289.1 			"/>
			
				<linearGradient id="SVGID_1_" gradientUnits="userSpaceOnUse" x1="-43.4626" y1="-548.1496" x2="-55.4151" y2="-555.63" gradientTransform="matrix(0.7071 0.7071 -0.7071 0.7071 -743.8274 703.8014)">
				<stop  offset="0" style="stop-color:#D7E69D"/>
				<stop  offset="0.4456" style="stop-color:#94C4AA"/>
				<stop  offset="1" style="stop-color:#01A4B6"/>
			</linearGradient>
			<path class="st3" d="M-382.2,283.4l-11.1-6.1c-0.3-0.2-0.6-0.2-0.8-0.1l9.1,9.1L-382.2,283.4z"/>
			
				<linearGradient id="SVGID_2_" gradientUnits="userSpaceOnUse" x1="-50.4108" y1="-554.5396" x2="-34.9147" y2="-550.4886" gradientTransform="matrix(0.7071 0.7071 -0.7071 0.7071 -743.8274 703.8014)">
				<stop  offset="0" style="stop-color:#ED277B"/>
				<stop  offset="1.920000e-002" style="stop-color:#EE2F7C"/>
				<stop  offset="0.7039" style="stop-color:#F7BD81"/>
				<stop  offset="1" style="stop-color:#FEEB74"/>
			</linearGradient>
			<path class="st4" d="M-382.2,289.1l3.8-2.1c0.8-0.4,0.8-1.1,0-1.5l-3.8-2.1l-2.8,2.8L-382.2,289.1z"/>
			
				<linearGradient id="SVGID_3_" gradientUnits="userSpaceOnUse" x1="-41.761" y1="-542.4758" x2="-58.5657" y2="-552.3627" gradientTransform="matrix(0.7071 0.7071 -0.7071 0.7071 -743.8274 703.8014)">
				<stop  offset="0" style="stop-color:#89CFBD"/>
				<stop  offset="9.070000e-002" style="stop-color:#7DBEBB"/>
				<stop  offset="0.5396" style="stop-color:#457CAC"/>
				<stop  offset="0.8523" style="stop-color:#1C5AA2"/>
				<stop  offset="1" style="stop-color:#084D9F"/>
			</linearGradient>
			<path class="st5" d="M-394.1,277.1c-0.3,0.1-0.6,0.4-0.6,1l0,16.2c0,0.5,0.2,0.8,0.5,1l9.1-9.1L-394.1,277.1z"/>
			
				<linearGradient id="SVGID_4_" gradientUnits="userSpaceOnUse" x1="-35.6591" y1="-550.327" x2="-46.0072" y2="-536.6938" gradientTransform="matrix(0.7071 0.7071 -0.7071 0.7071 -743.8274 703.8014)">
				<stop  offset="0" style="stop-color:#F04A2B"/>
				<stop  offset="0.4704" style="stop-color:#B54F6B"/>
				<stop  offset="0.8353" style="stop-color:#8B5191"/>
				<stop  offset="1" style="stop-color:#7851A1"/>
			</linearGradient>
			<path class="st6" d="M-394.1,295.3c0.2,0.1,0.5,0,0.9-0.1l11.1-6.1l-2.8-2.8L-394.1,295.3z"/>
		</g>
	</g>
</g>
</svg>
