<?xml version="1.0" encoding="utf-8"?>
<!-- Generator: Adobe Illustrator 19.1.0, SVG Export Plug-In . SVG Version: 6.00 Build 0)  -->
<svg version="1.1" id="レイヤー_1" xmlns="http://www.w3.org/2000/svg" xmlns:xlink="http://www.w3.org/1999/xlink" x="0px"
	 y="0px" viewBox="0 0 32 32" style="enable-background:new 0 0 32 32;" xml:space="preserve">
<style type="text/css">
	.st0{fill:#BDBDBD;}
</style>
<g id="新規シンボル_2">
	<path class="st0" d="M14.2,29.5c-2,1-4.1,1.1-4.9,1.1c-0.2,0-0.2,0-0.3,0c0,0-0.1,0-0.2,0c-1.3,0-7.6-0.3-7.6-6.1
		c0-5.7,6.9-6.1,9.1-6.1l0.1,0c-1.2-1.6-1-3.3-1-3.3c-0.1,0-0.3,0-0.5,0c-0.8,0-2.3-0.1-3.7-1c-1.6-1-2.4-2.8-2.4-5.3
		c0-7,7.6-7.2,7.7-7.2H18v0.2c0,0.8-1.5,1-2.6,1.2c-0.4,0-1.1,0.1-1.3,0.2c1.9,1,2.2,2.6,2.2,5c0,2.7-1.1,4.2-2.2,5.2
		c-0.7,0.6-1.3,1.1-1.3,1.8c0,0.6,0.8,1.3,1.6,2.1c1.4,1.3,3.4,3,3.4,5.9C18,26.1,16.7,28.2,14.2,29.5z M30.8,16h-4.9v4.9h-3.1V16
		h-4.9v-3.1h4.9V7.9h3.1v4.9h4.9V16z M13.1,7.1C12.3,4.4,11,3.5,9,3.5c-0.2,0-0.4,0-0.6,0.1c-0.9,0.2-1.5,1-1.9,2
		C6.1,6.7,6,7.9,6.4,9.1c0.6,2.3,2.2,3.9,3.9,3.9c0.2,0,0.4,0,0.6-0.1C12.7,12.5,13.8,9.8,13.1,7.1z M10.2,19.8c-0.2,0-0.3,0-0.5,0
		c-1.5,0.1-2.8,0.6-3.8,1.5c-1,0.9-1.4,2-1.4,3.1c0.1,2.3,2.6,3.7,5.7,3.5c3-0.2,5-1.9,4.8-4.2C14.9,21.4,13,19.8,10.2,19.8z"/>
</g>
</svg>
